<svg width="363" height="117" viewBox="0 0 363 117" fill="none" xmlns="http://www.w3.org/2000/svg">
<path d="M32.64 41.704C35.2427 42.4293 37.248 43.752 38.656 45.672C40.1067 47.592 40.832 49.9387 40.832 52.712C40.832 56.552 39.4453 59.56 36.672 61.736C33.9413 63.912 30.1653 65 25.344 65H8.832C7.59467 65 6.61333 64.6587 5.888 63.976C5.20533 63.2933 4.864 62.3333 4.864 61.096V23.784C4.864 22.5467 5.20533 21.5867 5.888 20.904C6.61333 20.2213 7.59467 19.88 8.832 19.88H24.704C29.3973 19.88 33.0667 20.9253 35.712 23.016C38.4 25.064 39.744 27.944 39.744 31.656C39.744 34.0453 39.104 36.1147 37.824 37.864C36.5867 39.6133 34.8587 40.8933 32.64 41.704ZM12.928 38.888H23.36C29.0347 38.888 31.872 36.776 31.872 32.552C31.872 30.4187 31.168 28.84 29.76 27.816C28.352 26.792 26.2187 26.28 23.36 26.28H12.928V38.888ZM24.448 58.6C27.4347 58.6 29.6107 58.0667 30.976 57C32.3413 55.9333 33.024 54.2693 33.024 52.008C33.024 49.7467 32.32 48.0613 30.912 46.952C29.5467 45.8427 27.392 45.288 24.448 45.288H12.928V58.6H24.448ZM73.5755 32.936C77.9275 32.936 81.1488 34.024 83.2395 36.2C85.3728 38.3333 86.4395 41.5973 86.4395 45.992V61.608C86.4395 62.76 86.0982 63.6773 85.4155 64.36C84.7328 65 83.7942 65.32 82.5995 65.32C81.4902 65.32 80.5728 64.9787 79.8475 64.296C79.1648 63.6133 78.8235 62.7173 78.8235 61.608V60.2C78.0982 61.864 76.9462 63.1653 75.3675 64.104C73.8315 65.0427 72.0395 65.512 69.9915 65.512C67.9008 65.512 66.0022 65.0853 64.2955 64.232C62.5888 63.3787 61.2448 62.2053 60.2635 60.712C59.2822 59.2187 58.7915 57.5547 58.7915 55.72C58.7915 53.416 59.3675 51.6027 60.5195 50.28C61.7142 48.9573 63.6342 47.9973 66.2795 47.4C68.9248 46.8027 72.5728 46.504 77.2235 46.504H78.8235V45.032C78.8235 42.9413 78.3755 41.4267 77.4795 40.488C76.5835 39.5067 75.1328 39.016 73.1275 39.016C71.8902 39.016 70.6315 39.208 69.3515 39.592C68.0715 39.9333 66.5568 40.4453 64.8075 41.128C63.6982 41.6827 62.8875 41.96 62.3755 41.96C61.6075 41.96 60.9675 41.6827 60.4555 41.128C59.9862 40.5733 59.7515 39.848 59.7515 38.952C59.7515 38.2267 59.9222 37.608 60.2635 37.096C60.6475 36.5413 61.2662 36.0293 62.1195 35.56C63.6128 34.7493 65.3835 34.1093 67.4315 33.64C69.5222 33.1707 71.5702 32.936 73.5755 32.936ZM71.5915 59.752C73.7248 59.752 75.4528 59.048 76.7755 57.64C78.1408 56.1893 78.8235 54.3333 78.8235 52.072V50.728H77.6715C74.8128 50.728 72.5942 50.856 71.0155 51.112C69.4368 51.368 68.3062 51.816 67.6235 52.456C66.9408 53.096 66.5995 53.9707 66.5995 55.08C66.5995 56.4453 67.0688 57.576 68.0075 58.472C68.9888 59.3253 70.1835 59.752 71.5915 59.752ZM124.202 33.064C125.311 32.9787 126.186 33.2133 126.826 33.768C127.466 34.3227 127.786 35.1547 127.786 36.264C127.786 37.416 127.509 38.2693 126.954 38.824C126.399 39.3787 125.397 39.7413 123.946 39.912L122.026 40.104C119.509 40.36 117.653 41.2133 116.458 42.664C115.306 44.1147 114.73 45.928 114.73 48.104V61.544C114.73 62.7813 114.346 63.7413 113.578 64.424C112.81 65.064 111.85 65.384 110.698 65.384C109.546 65.384 108.586 65.064 107.818 64.424C107.093 63.7413 106.73 62.7813 106.73 61.544V36.776C106.73 35.5813 107.093 34.664 107.818 34.024C108.586 33.384 109.525 33.064 110.634 33.064C111.743 33.064 112.639 33.384 113.322 34.024C114.005 34.6213 114.346 35.496 114.346 36.648V39.208C115.157 37.3307 116.351 35.88 117.93 34.856C119.551 33.832 121.343 33.256 123.306 33.128L124.202 33.064ZM161.374 32.936C164.105 32.936 166.515 33.5973 168.606 34.92C170.697 36.2427 172.318 38.12 173.47 40.552C174.665 42.984 175.262 45.8213 175.262 49.064C175.262 52.3067 174.665 55.1867 173.47 57.704C172.318 60.1787 170.675 62.0987 168.542 63.464C166.451 64.8293 164.062 65.512 161.374 65.512C159.113 65.512 157.086 65.0213 155.294 64.04C153.545 63.0587 152.201 61.6933 151.262 59.944V61.544C151.262 62.696 150.899 63.6133 150.174 64.296C149.449 64.9787 148.489 65.32 147.294 65.32C146.099 65.32 145.139 64.9787 144.414 64.296C143.731 63.6133 143.39 62.696 143.39 61.544V23.272C143.39 22.1627 143.753 21.2667 144.478 20.584C145.246 19.9013 146.227 19.56 147.422 19.56C148.617 19.56 149.577 19.88 150.302 20.52C151.027 21.16 151.39 22.0347 151.39 23.144V38.248C152.329 36.5413 153.673 35.24 155.422 34.344C157.171 33.4053 159.155 32.936 161.374 32.936ZM159.262 59.304C161.779 59.304 163.742 58.408 165.15 56.616C166.558 54.824 167.262 52.3067 167.262 49.064C167.262 45.864 166.558 43.4107 165.15 41.704C163.785 39.9973 161.822 39.144 159.262 39.144C156.702 39.144 154.718 40.0187 153.31 41.768C151.945 43.4747 151.262 45.9493 151.262 49.192C151.262 52.4347 151.945 54.9307 153.31 56.68C154.718 58.4293 156.702 59.304 159.262 59.304ZM218.692 33.064C219.929 33.064 220.91 33.4053 221.635 34.088C222.361 34.7707 222.723 35.688 222.723 36.84V61.672C222.723 62.7813 222.339 63.6773 221.572 64.36C220.846 65.0427 219.886 65.384 218.692 65.384C217.54 65.384 216.622 65.064 215.94 64.424C215.257 63.784 214.916 62.9093 214.916 61.8V60.2C213.934 61.9067 212.612 63.2293 210.948 64.168C209.284 65.064 207.406 65.512 205.316 65.512C197.635 65.512 193.795 61.2027 193.795 52.584V36.84C193.795 35.688 194.158 34.7707 194.883 34.088C195.609 33.4053 196.569 33.064 197.763 33.064C199.001 33.064 199.982 33.4053 200.707 34.088C201.433 34.7707 201.795 35.688 201.795 36.84V52.648C201.795 54.8667 202.243 56.5093 203.139 57.576C204.036 58.6427 205.444 59.176 207.364 59.176C209.582 59.176 211.353 58.4507 212.676 57C214.041 55.5067 214.724 53.544 214.724 51.112V36.84C214.724 35.688 215.086 34.7707 215.812 34.088C216.537 33.4053 217.497 33.064 218.692 33.064ZM260.682 33.064C261.791 32.9787 262.666 33.2133 263.306 33.768C263.946 34.3227 264.266 35.1547 264.266 36.264C264.266 37.416 263.989 38.2693 263.434 38.824C262.879 39.3787 261.877 39.7413 260.426 39.912L258.506 40.104C255.989 40.36 254.133 41.2133 252.938 42.664C251.786 44.1147 251.21 45.928 251.21 48.104V61.544C251.21 62.7813 250.826 63.7413 250.058 64.424C249.29 65.064 248.33 65.384 247.178 65.384C246.026 65.384 245.066 65.064 244.298 64.424C243.573 63.7413 243.21 62.7813 243.21 61.544V36.776C243.21 35.5813 243.573 34.664 244.298 34.024C245.066 33.384 246.005 33.064 247.114 33.064C248.223 33.064 249.119 33.384 249.802 34.024C250.485 34.6213 250.826 35.496 250.826 36.648V39.208C251.637 37.3307 252.831 35.88 254.41 34.856C256.031 33.832 257.823 33.256 259.786 33.128L260.682 33.064ZM305.357 19.56C306.552 19.56 307.533 19.9013 308.301 20.584C309.069 21.2667 309.453 22.1627 309.453 23.272V61.544C309.453 62.696 309.09 63.6133 308.365 64.296C307.64 64.9787 306.68 65.32 305.485 65.32C304.29 65.32 303.33 64.9787 302.605 64.296C301.88 63.6133 301.517 62.696 301.517 61.544V59.944C300.578 61.6933 299.213 63.0587 297.421 64.04C295.672 65.0213 293.666 65.512 291.405 65.512C288.717 65.512 286.306 64.8293 284.173 63.464C282.082 62.0987 280.44 60.1787 279.245 57.704C278.093 55.1867 277.517 52.3067 277.517 49.064C277.517 45.8213 278.093 42.984 279.245 40.552C280.44 38.12 282.082 36.2427 284.173 34.92C286.264 33.5973 288.674 32.936 291.405 32.936C293.666 32.936 295.672 33.4053 297.421 34.344C299.17 35.2827 300.514 36.6053 301.453 38.312V23.144C301.453 22.0773 301.794 21.224 302.477 20.584C303.202 19.9013 304.162 19.56 305.357 19.56ZM293.517 59.304C296.077 59.304 298.04 58.4293 299.405 56.68C300.813 54.9307 301.517 52.4347 301.517 49.192C301.517 45.9493 300.813 43.4747 299.405 41.768C298.04 40.0187 296.098 39.144 293.581 39.144C291.021 39.144 289.037 39.9973 287.629 41.704C286.221 43.4107 285.517 45.864 285.517 49.064C285.517 52.3067 286.221 54.824 287.629 56.616C289.037 58.408 291 59.304 293.517 59.304ZM344.114 65.512C340.914 65.512 338.098 64.8507 335.666 63.528C333.277 62.2053 331.421 60.3067 330.098 57.832C328.776 55.3573 328.114 52.4773 328.114 49.192C328.114 45.9067 328.776 43.048 330.098 40.616C331.421 38.1413 333.277 36.2427 335.666 34.92C338.098 33.5973 340.914 32.936 344.114 32.936C347.314 32.936 350.109 33.5973 352.498 34.92C354.93 36.2427 356.786 38.1413 358.066 40.616C359.389 43.048 360.05 45.9067 360.05 49.192C360.05 52.4773 359.389 55.3573 358.066 57.832C356.786 60.3067 354.93 62.2053 352.498 63.528C350.109 64.8507 347.314 65.512 344.114 65.512ZM344.05 59.304C346.653 59.304 348.637 58.4507 350.002 56.744C351.368 55.0373 352.05 52.52 352.05 49.192C352.05 45.9067 351.368 43.4107 350.002 41.704C348.637 39.9547 346.674 39.08 344.114 39.08C341.554 39.08 339.57 39.9547 338.162 41.704C336.797 43.4107 336.114 45.9067 336.114 49.192C336.114 52.52 336.797 55.0373 338.162 56.744C339.528 58.4507 341.49 59.304 344.05 59.304Z" fill="black"/>
<path d="M164.861 73.0629C160.595 73.5138 156.329 75.2079 151.71 78.3157C149.127 80.0463 146.811 81.8744 141.912 86.0425C136.72 90.4544 134.307 92.2582 131.126 94.0497C127.457 96.1338 124.727 97.255 121.522 98.0107C120.303 98.291 119.828 98.3397 118.329 98.3397C116.818 98.3397 116.452 98.3032 115.843 98.0716C114.758 97.6694 114.173 97.2794 113.417 96.4629C112.235 95.1954 111.589 93.416 111.577 91.466C111.565 90.0522 111.857 89.2966 112.686 88.5288C113.649 87.6513 114.575 87.31 118.085 86.5544C119.694 86.2132 120.51 85.8719 121.083 85.2869C121.851 84.5191 121.583 84.1047 119.816 83.3613C117.89 82.5569 116.22 82.3254 114.429 82.6179C110.919 83.1907 108.164 84.9822 105.91 88.1266C102.814 92.4654 102.168 97.2916 104.069 101.728C107.665 110.101 121.205 115.622 140.218 116.463C150.187 116.901 162.752 115.195 169.199 112.538C171.552 111.575 172.819 110.808 175.683 108.626C176.609 107.919 178.523 106.968 179.449 106.761C180.473 106.518 181.789 106.481 182.179 106.688C182.338 106.773 182.935 107.188 183.52 107.614C193.343 114.793 214.342 118.181 232.526 115.524C240.618 114.342 247.37 111.978 252.026 108.675C253.464 107.663 255.658 105.482 256.511 104.238C259.399 100.009 259.74 95.5488 257.51 91.1004C256.34 88.7725 254.354 86.3716 252.282 84.8116C251.099 83.9097 248.918 82.8007 247.821 82.5204C245.457 81.9232 243.397 82.3254 241.886 83.666C241.252 84.2266 240.569 85.1772 240.569 85.5185C240.569 86.006 242.154 86.5057 245.761 87.1882C247.784 87.566 248.686 87.9072 249.442 88.5897C250.661 89.6988 250.892 91.6854 250.003 93.4525C249.637 94.1594 248.248 95.6463 247.065 96.5969C244.53 98.6079 241.618 99.0466 238.193 97.901C237.011 97.511 234.841 96.4141 233.61 95.5854C232.16 94.6104 227.346 90.9541 221.313 86.2375C218.729 84.2144 215.756 81.9475 214.708 81.1919C208.455 76.7435 203.361 74.3547 198.096 73.4163C196.731 73.1726 196.122 73.136 193.709 73.136C191.576 73.136 190.625 73.1847 189.748 73.3554C186.944 73.8672 184.251 74.7447 181.716 75.9513C179.864 76.841 179.693 76.841 178.048 75.9513C175.574 74.6229 172.344 73.5382 169.858 73.1969C168.468 73.0019 166.067 72.941 164.861 73.0629Z" fill="black"/>
</svg>
