<svg width="771" height="518" viewBox="0 0 771 518" fill="none" xmlns="http://www.w3.org/2000/svg">
<path d="M372.965 249.159C378.193 254.972 381.181 258.297 381.181 258.297C381.181 258.297 378.012 255.148 372.464 249.635C366.971 244.069 359.017 236.224 349.667 226.624C340.323 217.015 329.305 205.917 317.715 193.823C306.116 181.74 293.744 168.847 281.369 155.956C269.113 142.953 256.856 129.955 245.365 117.765C233.869 105.581 223.333 94.028 214.201 84.2173C205.16 74.32 197.628 66.0746 192.355 60.304C187.125 54.488 184.137 51.1627 184.137 51.1627C184.137 51.1627 187.307 54.3133 192.853 59.8253C198.356 65.38 206.216 73.316 215.648 82.84C224.992 92.4493 236.004 103.551 247.601 115.639C259.2 127.725 271.573 140.613 283.948 153.504C296.204 166.501 308.463 179.505 319.955 191.696C331.457 203.872 341.987 215.433 351.119 225.243C360.24 235.059 367.681 243.396 372.965 249.159ZM732.831 68.228C726.44 68.228 721.259 63.0466 721.259 56.6546C721.259 50.2627 726.44 45.08 732.831 45.08C739.224 45.08 744.404 50.2627 744.404 56.6546C744.404 63.0466 739.224 68.228 732.831 68.228ZM702.563 43.7453C671.708 96.8466 534.252 248.451 464.367 323.916L459.335 319.893C533.045 240.143 662.236 96.7453 691.989 45.532C702.897 26.7653 717.283 15.436 730.635 14.9947C721.079 19.6427 711.164 28.9426 702.563 43.7453ZM537.201 386.697C536.055 400.471 532.379 421.916 526.836 426.909C522.328 422.209 503.541 402.623 476.667 374.6C481.74 370.003 488.972 363.417 497.868 355.256L537.201 386.697ZM469.316 361.124C462.924 361.124 457.741 355.94 457.741 349.548C457.741 343.156 462.924 337.976 469.316 337.976C475.708 337.976 480.889 343.156 480.889 349.548C480.889 355.94 475.708 361.124 469.316 361.124ZM460.881 379.32L420.483 361.537C425.613 356.111 432.104 349.196 439.629 341.128C441.123 342.683 442.596 344.221 444.064 345.751C437.119 353.18 431.644 358.993 428.069 362.755L461.504 378.735C461.295 378.933 461.067 379.147 460.881 379.32ZM167.892 52.6213L191.104 6.34001L407.525 241.381L392.529 271.047L461.943 326.535C456.279 332.647 451.105 338.208 446.497 343.143C352.449 245.083 205.735 92.1027 167.892 52.6213ZM413.055 136.373C429.037 120.836 453.195 119.773 467.02 133.988C480.84 148.208 479.085 172.332 463.103 187.863C447.12 203.401 422.963 204.465 409.139 190.249C395.317 176.029 397.072 151.909 413.055 136.373ZM745.212 11.392C741.148 9.07601 736.488 7.82935 731.447 7.82935C715.061 7.82935 698.439 20.2693 685.836 41.9586C656.315 92.76 527.212 235.988 453.76 315.439L397.013 270.072L411.815 240.783L375.032 200.835L386.144 190.637C405.731 222.096 459.812 224.467 482.293 187.299C503.383 152.423 479.845 102.948 435.405 109.924C429.493 110.853 403.019 100.277 402.839 105.649C401.948 132.104 379.468 173.277 379.468 173.277L363.301 188.097L190.231 0.138672L163.585 53.268L164.456 54.1747C187.467 78.188 255.175 148.793 325.819 222.456L315.371 232.033L280.204 214.675C280.204 214.675 277.533 218.193 272.808 224.424C280.265 234.265 291.74 249.425 305.597 267.784C319.84 252.711 328.575 243.459 328.575 243.459L337.823 234.973C371.476 270.067 405.255 305.287 434.692 335.98C425.24 346.117 417.428 354.417 411.836 360.305L408.348 363.975L462.315 387.733L464.029 386.133C464.2 385.973 465.731 384.543 468.4 382.029L468.425 382.043C468.425 382.043 470.411 380.264 474.028 376.991C505.048 409.337 525.305 430.459 525.305 430.459L526.215 431.408L527.387 430.817C537.488 425.768 540.515 390.085 540.825 386.035L540.897 385.097L500.521 352.821C563.141 295.283 699.763 167.011 748.393 99.4693C785.64 47.736 770.7 11.5013 745.212 11.392ZM270.412 277.881C263.805 277.881 258.359 272.972 257.488 266.605H283.333C282.465 272.972 277.017 277.881 270.412 277.881ZM270.412 251.765C277.017 251.765 282.465 256.676 283.333 263.044H257.488C258.36 256.676 263.805 251.765 270.412 251.765ZM133.503 188.627C133.033 189.179 132.549 189.723 132.039 190.249C118.213 204.465 94.0574 203.401 78.0747 187.863C62.0934 172.332 60.3387 148.208 74.1601 133.988C74.4921 133.647 74.8561 133.359 75.1987 133.035C89.1614 119.873 112.525 121.208 128.124 136.373C143.513 151.333 145.703 174.251 133.503 188.627ZM260.972 214.675L225.807 232.033L161.708 173.277C161.708 173.277 152.609 128.789 119.404 113.975L119.503 113.787C119.503 113.787 117.823 112.988 114.883 111.583C113.228 110.901 111.221 110.072 108.917 109.121C106.917 108.427 104.693 107.579 102.276 106.78C101.993 106.688 101.721 106.593 101.431 106.501C95.9294 104.741 89.4947 102.887 82.5161 101.34C79.0427 100.5 75.4001 99.8733 71.7294 99.144C68.0174 98.5867 64.2907 97.864 60.4947 97.48C56.7227 96.9733 52.9267 96.6333 49.1814 96.392C45.4521 96.0413 41.7227 96.124 38.1587 95.9787C34.5614 96.1333 31.1067 96.0733 27.8147 96.416C24.5227 96.7533 21.4201 96.9586 18.5681 97.572C15.7107 98.0453 13.1081 98.5307 10.8334 99.26C8.55607 99.9213 6.55341 100.375 4.98407 101.119C1.81874 102.419 0.0107422 103.163 0.0107422 103.163L2.20808 108.073C2.20808 108.073 3.88674 107.528 6.82007 106.579C8.24274 106.007 10.1401 105.736 12.2534 105.295C14.3467 104.78 16.7921 104.513 19.4694 104.272C22.1107 103.897 25.0561 103.935 28.1347 103.844C31.2147 103.747 34.5054 104.056 37.8681 104.157C41.2494 104.557 44.7374 104.725 48.2641 105.331C51.8014 105.82 55.3747 106.411 58.9307 107.167C62.5001 107.793 66.0187 108.759 69.4974 109.545C72.5374 110.392 75.5307 111.171 78.4241 112.055C78.8067 112.172 79.2067 112.275 79.5854 112.396C79.7907 112.456 79.9801 112.523 80.1814 112.585C75.0387 114.693 70.4894 117.735 66.5947 121.451C50.1054 137.187 45.5027 165.171 58.8854 187.299C79.6841 221.687 127.512 222.209 150.064 197.184C151.889 195.159 153.567 192.991 155.031 190.637L155.492 191.06L212.603 243.459C212.603 243.459 222.353 253.787 238.045 270.393C181.883 344.792 86.7241 471.513 62.0934 508.461C57.1961 515.805 60.8347 522.761 72.1814 512.911C79.9067 506.2 197.363 382.243 270.588 304.819C343.813 382.243 461.269 506.2 468.993 512.911C476.484 519.412 480.612 518.591 481.145 515.169C481.421 513.408 480.747 510.957 479.084 508.461C443.527 455.123 260.972 214.675 260.972 214.675Z" fill="#974F31"/>
</svg>
