<svg width="713" height="594" viewBox="0 0 713 594" fill="none" xmlns="http://www.w3.org/2000/svg">
<path d="M545.051 533.719C557.711 548.708 516.707 587.391 494.244 592.547C489.251 593.691 485.169 593.191 482.803 590.396C450.617 526.028 411.285 463.276 364.517 402.128C309.052 458.539 244.508 524.213 234.079 534.945C215.263 554.303 172.639 579.148 148.271 577.312L328.659 357.312C327.36 355.76 326.055 354.211 324.748 352.661L152.461 564.364C150.555 550.945 176.04 510.511 202.185 480.197C213.521 467.055 275.417 392.333 317.2 345.344C308.941 340.683 300.973 338.403 293.44 337.815C263.027 335.433 239.727 360.557 233.052 367.469C232.237 368.312 231.665 368.891 231.361 369.107C227.076 372.193 223.307 367.159 224.584 364.36L229.907 359.516L285.489 308.905L281.82 304.876L225.524 356.131L222.257 359.107C221.021 360.232 219.105 360.14 217.979 358.907C216.855 357.669 216.943 355.752 218.18 354.628L222.156 351.008L277.743 300.396L274.073 296.367L217.777 347.623L214.511 350.596C213.273 351.724 211.357 351.633 210.232 350.396C209.107 349.159 209.195 347.245 210.433 346.12L213.527 343.303L269.995 291.889L266.735 288.305L210.44 339.559L207.171 342.536C205.935 343.663 204.021 343.572 202.893 342.335C201.767 341.099 201.857 339.183 203.093 338.056L207.068 334.439L262.656 283.828L258.985 279.797L202.693 331.052L199.424 334.025C198.188 335.153 196.272 335.063 195.145 333.825C194.021 332.591 194.111 330.673 195.347 329.549L199.324 325.927L254.909 275.319L251.24 271.287L194.945 322.543L191.677 325.517C190.44 326.644 188.524 326.555 187.401 325.317C186.273 324.08 186.361 322.167 187.6 321.04L190.693 318.223L247.161 266.809L243.901 263.225L187.607 314.48L184.337 317.456C183.1 318.583 181.188 318.493 180.06 317.256C178.935 316.019 179.024 314.105 180.26 312.979L184.237 309.357L239.823 258.749L236.153 254.719L179.86 305.973L176.591 308.947C175.355 310.073 173.439 309.984 172.312 308.747C171.188 307.509 171.276 305.596 172.513 304.468L176.489 300.848L232.076 250.24L228.407 246.209L172.112 297.464L168.844 300.439C167.607 301.564 165.691 301.475 164.565 300.237C163.44 299 163.528 297.085 164.767 295.961L167.86 293.144L224.328 241.731L221.068 238.148L164.772 289.401L161.504 292.379C160.268 293.503 158.355 293.415 157.227 292.176C156.101 290.941 156.191 289.025 157.427 287.899L161.404 284.277L216.989 233.669L213.319 229.639L157.027 280.892L153.757 283.868C152.521 284.996 150.605 284.905 149.479 283.667C148.355 282.432 148.443 280.517 149.68 279.389L153.657 275.771L209.243 225.161L205.573 221.131L149.279 272.384L146.011 275.36C144.773 276.487 142.86 276.395 141.732 275.16C140.607 273.921 140.695 272.007 141.933 270.883L145.027 268.065L201.495 216.653L198.235 213.071L141.94 264.324L138.671 267.3C137.435 268.424 135.519 268.333 134.393 267.099C133.268 265.861 133.357 263.945 134.593 262.821L138.571 259.199L194.156 208.591L190.485 204.56L134.193 255.815L130.924 258.789C129.688 259.916 127.772 259.827 126.645 258.588C125.521 257.353 125.609 255.439 126.847 254.311L130.823 250.692L186.409 200.083L182.74 196.052L126.445 247.305L123.177 250.28C121.94 251.408 120.024 251.316 118.899 250.081C117.773 248.843 117.861 246.929 119.1 245.803L122.191 242.988L178.661 191.573L175.401 187.992L119.105 239.245L115.837 242.22C114.601 243.345 112.688 243.255 111.56 242.02C110.433 240.781 110.524 238.867 111.76 237.743L115.737 234.12L171.323 183.512L167.653 179.481L111.36 230.735L108.091 233.712C106.855 234.836 104.939 234.748 103.812 233.509C102.688 232.275 102.776 230.359 104.013 229.232L107.991 225.611L163.576 175.003L159.907 170.972L103.612 222.225L100.344 225.201C99.1066 226.329 97.1906 226.239 96.068 225C94.94 223.765 95.0279 221.851 96.2666 220.723L99.3599 217.909L155.828 166.495L152.568 162.913L96.272 214.167L93.0039 217.14C91.7679 218.268 89.8519 218.176 88.7266 216.941C87.6013 215.703 87.6906 213.788 88.9266 212.664L92.904 209.043L148.489 158.435L144.82 154.404L88.5266 205.657L85.2573 208.633C84.0213 209.757 82.1053 209.667 80.9786 208.432C79.8546 207.195 79.9426 205.279 81.18 204.155L85.1546 200.533L140.743 149.924L137.073 145.893L80.7773 197.148L77.5106 200.123C76.2733 201.249 74.3573 201.16 73.232 199.923C72.1066 198.687 72.1946 196.772 73.4333 195.644L76.5266 192.831L132.995 141.416L129.735 137.833L73.4386 189.087L70.1706 192.061C68.9346 193.189 67.0213 193.099 65.8933 191.861C64.7679 190.624 64.8573 188.711 66.0933 187.583L70.0706 183.964L125.656 133.356L121.987 129.325L65.6933 180.579L62.424 183.553C61.188 184.679 59.272 184.589 58.1453 183.353C57.0213 182.116 57.1093 180.2 58.3466 179.076L62.3226 175.453L117.909 124.845L114.24 120.815L57.944 172.068L54.6773 175.045C53.44 176.169 51.524 176.081 50.3986 174.843C49.2733 173.608 49.3613 171.692 50.5999 170.565L53.6933 167.749L110.161 116.336L106.901 112.753L50.6053 164.007L47.3373 166.983C46.1013 168.109 44.1853 168.02 43.0599 166.783C41.9333 165.547 42.0239 163.632 43.2599 162.504L47.2373 158.885L102.823 108.276L99.1533 104.247L42.8599 155.499L39.5906 158.473C38.3546 159.601 36.4386 159.511 35.3119 158.275C34.1879 157.037 34.276 155.121 35.5133 153.997L39.4893 150.377L95.076 99.768L91.4066 95.7373L35.1119 146.991L31.844 149.967C30.6066 151.091 28.6906 151.001 27.5653 149.765C26.4399 148.528 26.5279 146.613 27.7666 145.488L30.8599 142.671L87.328 91.2573L84.068 87.6747L27.7733 138.929L24.5039 141.905C23.2679 143.029 21.3519 142.941 20.2266 141.704C19.1013 140.468 19.1906 138.553 20.4266 137.425L24.4039 133.805L79.9893 83.196L76.3199 79.1667L20.0266 130.419L16.7573 133.395C15.5213 134.523 13.6053 134.432 12.4786 133.195C11.3546 131.96 11.4426 130.044 12.6799 128.916L45.0026 99.4893L72.2426 74.6893L70.7613 73.0613L9.26662 120.863L6.97195 122.647C5.48795 123.999 3.19062 123.889 1.83862 122.408C0.486616 120.923 0.594612 118.624 2.07861 117.275L76.4186 49.588C76.6773 49.356 76.9253 49.1293 77.1613 48.9146C77.1613 48.9133 77.1626 48.912 77.164 48.912L85.7119 42.668C88.8413 39.8213 93.2666 39.3613 96.1933 41.1226C96.7039 41.4333 97.1773 41.8027 97.5813 42.2467C259.904 196.055 407.361 361.172 545.051 533.719ZM362.053 306.82C359.929 304.441 357.805 302.061 355.675 299.687C367.765 284.775 380.944 269.02 394.295 256.196L403.795 255.529L362.053 306.82ZM674.821 208.164C654.716 236.025 621.621 246.491 600.903 231.54C580.187 216.585 579.692 181.881 599.799 154.02C619.905 126.157 653 115.692 673.719 130.643C694.436 145.596 694.931 180.303 674.821 208.164ZM391.393 294.565C392.7 291.92 394.675 289.56 397.293 287.787C405.351 282.328 416.308 284.433 421.768 292.491C423.543 295.108 424.504 298.029 424.737 300.971L391.393 294.565ZM417.068 316.967C409.011 322.427 398.052 320.323 392.591 312.265C390.388 309.011 389.437 305.288 389.591 301.644L423.789 308.213C422.581 311.655 420.319 314.763 417.068 316.967ZM477.063 110.315C462.729 89.1653 474.167 56.3933 502.612 37.1173C531.053 17.8413 565.731 19.3613 580.064 40.5107C594.397 61.6627 582.96 94.4333 554.516 113.709C526.073 132.985 491.396 131.467 477.063 110.315ZM687.759 110.988C656.836 88.6693 609.137 101.936 581.223 140.613C578.472 144.427 576.028 148.345 573.864 152.332C546.512 187.689 514.853 217.967 470.112 239.165C468.799 245.632 458.461 269.863 454.117 279.765L450.232 277.497L450.525 272.636C468.827 219.497 500.467 181.821 553.905 140.301C558.456 138.087 562.94 135.528 567.3 132.575C606.788 105.813 621.455 58.528 600.06 26.9613C578.665 -4.60932 529.312 -8.50533 489.825 18.2533C450.34 45.0147 435.673 92.3 457.067 123.867C466.649 138.008 481.849 146.576 499.252 149.348C499.188 149.375 499.14 149.392 499.14 149.392L366.229 311.491C380.091 327.052 393.847 342.692 407.499 358.415C431.336 334.175 447.831 317.405 447.831 317.405L449.171 295.139L562.435 208.017C564.665 225.544 572.788 241.036 586.671 251.057C617.593 273.375 665.293 260.109 693.205 221.432C721.121 182.751 718.68 133.305 687.759 110.988Z" fill="#974F31"/>
</svg>
