<svg width="1280" height="358" viewBox="0 0 1280 358" fill="none" xmlns="http://www.w3.org/2000/svg">
<path d="M507.8 1C472.8 4.7 437.8 18.6 399.9 44.1C378.7 58.3 359.7 73.3 319.5 107.5C276.9 143.7 257.1 158.5 231 173.2C200.9 190.3 178.5 199.5 152.2 205.7C142.2 208 138.3 208.4 126 208.4C113.6 208.4 110.6 208.1 105.6 206.2C96.6999 202.9 91.8999 199.7 85.6999 193C75.9999 182.6 70.6999 168 70.5999 152C70.4999 140.4 72.8999 134.2 79.6999 127.9C87.5999 120.7 95.1999 117.9 124 111.7C137.2 108.9 143.9 106.1 148.6 101.3C154.9 95 152.7 91.6 138.2 85.5C122.4 78.9 108.7 77 93.9999 79.4C65.1999 84.1 42.5999 98.8 24.0999 124.6C-1.30009 160.2 -6.60009 199.8 8.9999 236.2C38.4999 304.9 149.6 350.2 305.6 357.1C387.4 360.7 490.5 346.7 543.4 324.9C562.7 317 573.1 310.7 596.6 292.8C604.2 287 619.9 279.2 627.5 277.5C635.9 275.5 646.7 275.2 649.9 276.9C651.2 277.6 656.1 281 660.9 284.5C741.5 343.4 913.8 371.2 1063 349.4C1129.4 339.7 1184.8 320.3 1223 293.2C1234.8 284.9 1252.8 267 1259.8 256.8C1283.5 222.1 1286.3 185.5 1268 149C1258.4 129.9 1242.1 110.2 1225.1 97.4C1215.4 90 1197.5 80.9 1188.5 78.6C1169.1 73.7 1152.2 77 1139.8 88C1134.6 92.6 1129 100.4 1129 103.2C1129 107.2 1142 111.3 1171.6 116.9C1188.2 120 1195.6 122.8 1201.8 128.4C1211.8 137.5 1213.7 153.8 1206.4 168.3C1203.4 174.1 1192 186.3 1182.3 194.1C1161.5 210.6 1137.6 214.2 1109.5 204.8C1099.8 201.6 1082 192.6 1071.9 185.8C1060 177.8 1020.5 147.8 971 109.1C949.8 92.5 925.4 73.9 916.8 67.7C865.5 31.2 823.7 11.6 780.5 3.9C769.3 1.9 764.3 1.6 744.5 1.6C727 1.6 719.2 2 712 3.4C689 7.6 666.9 14.8 646.1 24.7C630.9 32 629.5 32 616 24.7C595.7 13.8 569.2 4.9 548.8 2.1C537.4 0.500001 517.7 7.73918e-07 507.8 1Z" fill="#974f31"/>
</svg>
